<svg width="1727" height="753" viewBox="0 0 1727 753" fill="none" xmlns="http://www.w3.org/2000/svg">
<g clip-path="url(#clip0_110_46)">
<rect width="1727" height="753" fill="#F2F9FF"/>
<g opacity="0.09">
<line x1="-14.8125" y1="465.316" x2="1798.03" y2="465.316" stroke="#04345B" stroke-width="1.51196"/>
<line x1="-14.8125" y1="78.2521" x2="1798.03" y2="78.2521" stroke="#04345B" stroke-width="1.51196"/>
<line x1="-14.8125" y1="658.846" x2="1798.03" y2="658.846" stroke="#04345B" stroke-width="1.51196"/>
<line x1="-14.8125" y1="271.784" x2="1798.03" y2="271.784" stroke="#04345B" stroke-width="1.51196"/>
<line x1="-14.8125" y1="368.55" x2="1798.03" y2="368.55" stroke="#04345B" stroke-width="1.51196"/>
<line x1="-14.8125" y1="562.08" x2="1798.03" y2="562.08" stroke="#04345B" stroke-width="1.51196"/>
<line x1="-14.8125" y1="175.018" x2="1798.03" y2="175.018" stroke="#04345B" stroke-width="1.51196"/>
<line x1="41.8854" y1="-7.99988" x2="41.8853" y2="1392.08" stroke="#04345B" stroke-width="1.51196"/>
<line x1="816.014" y1="-7.99988" x2="816.014" y2="1392.08" stroke="#04345B" stroke-width="1.51196"/>
<line x1="428.95" y1="-8" x2="428.95" y2="1392.08" stroke="#04345B" stroke-width="1.51196"/>
<line x1="1203.07" y1="-7.99988" x2="1203.07" y2="1392.08" stroke="#04345B" stroke-width="1.51196"/>
<line x1="1590.14" y1="-7.99988" x2="1590.14" y2="1392.08" stroke="#04345B" stroke-width="1.51196"/>
<line x1="235.418" y1="-7.99988" x2="235.418" y2="1392.08" stroke="#04345B" stroke-width="1.51196"/>
<line x1="1009.54" y1="-7.99988" x2="1009.54" y2="1392.08" stroke="#04345B" stroke-width="1.51196"/>
<line x1="622.482" y1="-7.99988" x2="622.482" y2="1392.08" stroke="#04345B" stroke-width="1.51196"/>
<line x1="1396.61" y1="-8" x2="1396.61" y2="1392.08" stroke="#04345B" stroke-width="1.51196"/>
<line x1="138.654" y1="-7.99988" x2="138.654" y2="1392.08" stroke="#04345B" stroke-width="1.51196"/>
<line x1="912.777" y1="-8" x2="912.777" y2="1392.08" stroke="#04345B" stroke-width="1.51196"/>
<line x1="525.713" y1="-7.99988" x2="525.713" y2="1392.08" stroke="#04345B" stroke-width="1.51196"/>
<line x1="1299.84" y1="-7.99988" x2="1299.84" y2="1392.08" stroke="#04345B" stroke-width="1.51196"/>
<line x1="1686.9" y1="-7.99988" x2="1686.9" y2="1392.08" stroke="#04345B" stroke-width="1.51196"/>
<line x1="332.187" y1="-7.99988" x2="332.187" y2="1392.08" stroke="#04345B" stroke-width="1.51196"/>
<line x1="1106.31" y1="-7.99988" x2="1106.31" y2="1392.08" stroke="#04345B" stroke-width="1.51196"/>
<line x1="719.245" y1="-7.99988" x2="719.245" y2="1392.08" stroke="#04345B" stroke-width="1.51196"/>
<line x1="1493.37" y1="-7.99988" x2="1493.37" y2="1392.08" stroke="#04345B" stroke-width="1.51196"/>
</g>
</g>
<defs>
<clipPath id="clip0_110_46">
<rect width="1727" height="753" fill="white"/>
</clipPath>
</defs>
</svg>
