<svg width="88" height="88" viewBox="0 0 88 88" fill="none" xmlns="http://www.w3.org/2000/svg">
<rect width="88" height="88" rx="10" fill="white"/>
<rect width="88" height="88" rx="10" fill="#04345B"/>
<path fill-rule="evenodd" clip-rule="evenodd" d="M33.0001 44C32.9994 42.0902 33.4959 40.213 34.4409 38.5533C35.3859 36.8937 36.7467 35.5086 38.3894 34.5345C40.0322 33.5603 41.9002 33.0307 43.8098 32.9976C45.7194 32.9646 47.6046 33.4293 49.2801 34.346C49.4532 34.4483 49.6452 34.5147 49.8445 34.5413C50.0438 34.5678 50.2464 34.5541 50.4403 34.5008C50.6342 34.4475 50.8154 34.3558 50.9732 34.2311C51.1309 34.1063 51.262 33.9512 51.3585 33.7748C51.4551 33.5984 51.5152 33.4044 51.5353 33.2044C51.5554 33.0043 51.5351 32.8022 51.4755 32.6101C51.416 32.4181 51.3184 32.24 51.1886 32.0864C51.0588 31.9328 50.8995 31.8068 50.7201 31.716C48.0644 30.2616 45.0088 29.7073 42.0115 30.1363C39.0141 30.5653 36.2367 31.9545 34.0956 34.0956C31.9546 36.2366 30.5654 39.0141 30.1364 42.0114C29.7074 45.0087 30.2616 48.0644 31.7161 50.72C31.9141 51.0553 32.2347 51.3005 32.6102 51.4037C32.9856 51.5068 33.3865 51.46 33.7281 51.273C34.0696 51.086 34.325 50.7735 34.4404 50.4016C34.5557 50.0297 34.5219 49.6275 34.3461 49.28C33.4594 47.6617 32.9964 45.8454 33.0001 44ZM56.2841 37.28C56.1933 37.1006 56.0674 36.9413 55.9138 36.8115C55.7602 36.6817 55.582 36.5841 55.39 36.5246C55.1979 36.465 54.9958 36.4447 54.7958 36.4648C54.5957 36.4849 54.4017 36.545 54.2253 36.6416C54.0489 36.7382 53.8938 36.8692 53.769 37.0269C53.6443 37.1847 53.5526 37.3659 53.4993 37.5598C53.446 37.7537 53.4323 37.9563 53.4589 38.1556C53.4854 38.3549 53.5518 38.5469 53.6541 38.72C54.7971 40.8067 55.2327 43.2076 54.8957 45.5628C54.5587 47.918 53.4671 50.1004 51.7848 51.7827C50.1025 53.465 47.92 54.5566 45.5649 54.8936C43.2097 55.2306 40.8087 54.795 38.7221 53.652C38.3731 53.4605 37.9623 53.4155 37.5801 53.5269C37.1979 53.6383 36.8756 53.897 36.6841 54.246C36.4926 54.5951 36.4476 55.0058 36.559 55.388C36.6704 55.7702 36.9291 56.0925 37.2781 56.284C39.9338 57.7385 42.9894 58.2928 45.9867 57.8637C48.984 57.4347 51.7615 56.0455 53.9025 53.9045C56.0436 51.7634 57.4328 48.986 57.8618 45.9887C58.2908 42.9913 57.7365 39.9357 56.2821 37.28H56.2841ZM47.0001 44C47.0001 44.7957 46.684 45.5587 46.1214 46.1213C45.5588 46.684 44.7957 47 44.0001 47C43.2044 47 42.4414 46.684 41.8788 46.1213C41.3162 45.5587 41.0001 44.7957 41.0001 44C41.0001 43.2044 41.3162 42.4413 41.8788 41.8787C42.4414 41.3161 43.2044 41 44.0001 41C44.7957 41 45.5588 41.3161 46.1214 41.8787C46.684 42.4413 47.0001 43.2044 47.0001 44ZM50.0001 44C50.0001 45.5913 49.3679 47.1175 48.2427 48.2427C47.1175 49.3679 45.5914 50 44.0001 50C42.4088 50 40.8827 49.3679 39.7574 48.2427C38.6322 47.1175 38.0001 45.5913 38.0001 44C38.0001 42.4087 38.6322 40.8826 39.7574 39.7574C40.8827 38.6322 42.4088 38 44.0001 38C45.5914 38 47.1175 38.6322 48.2427 39.7574C49.3679 40.8826 50.0001 42.4087 50.0001 44Z" fill="white"/>
</svg>
