<svg width="89" height="88" viewBox="0 0 89 88" fill="none" xmlns="http://www.w3.org/2000/svg">
<rect x="0.708496" width="88" height="88" rx="10" fill="#242424"/>
<rect x="0.708496" width="88" height="88" rx="10" fill="#F2F9FF"/>
<path d="M35.3752 35.3334C35.3752 34.0957 35.8669 32.9087 36.7421 32.0335C37.6172 31.1584 38.8042 30.6667 40.0419 30.6667H44.7086V40H40.0419C38.8042 40 37.6172 39.5084 36.7421 38.6332C35.8669 37.758 35.3752 36.571 35.3752 35.3334Z" stroke="#04345B" stroke-width="2" stroke-linecap="round" stroke-linejoin="round"/>
<path d="M44.7085 30.6667H49.3752C49.988 30.6667 50.5948 30.7874 51.161 31.0219C51.7272 31.2564 52.2417 31.6002 52.675 32.0335C53.1083 32.4669 53.4521 32.9813 53.6866 33.5475C53.9211 34.1137 54.0418 34.7205 54.0418 35.3334C54.0418 35.9462 53.9211 36.553 53.6866 37.1192C53.4521 37.6854 53.1083 38.1998 52.675 38.6332C52.2417 39.0665 51.7272 39.4103 51.161 39.6448C50.5948 39.8793 49.988 40 49.3752 40H44.7085V30.6667Z" stroke="#04345B" stroke-width="2" stroke-linecap="round" stroke-linejoin="round"/>
<path d="M44.7085 44.6667C44.7085 44.0538 44.8292 43.447 45.0637 42.8808C45.2982 42.3146 45.642 41.8002 46.0753 41.3668C46.5087 40.9335 47.0231 40.5898 47.5893 40.3552C48.1555 40.1207 48.7623 40 49.3752 40C49.988 40 50.5948 40.1207 51.161 40.3552C51.7272 40.5898 52.2417 40.9335 52.675 41.3668C53.1083 41.8002 53.4521 42.3146 53.6866 42.8808C53.9211 43.447 54.0418 44.0538 54.0418 44.6667C54.0418 45.2795 53.9211 45.8863 53.6866 46.4525C53.4521 47.0187 53.1083 47.5332 52.675 47.9665C52.2417 48.3998 51.7272 48.7436 51.161 48.9781C50.5948 49.2126 49.988 49.3333 49.3752 49.3333C48.7623 49.3333 48.1555 49.2126 47.5893 48.9781C47.0231 48.7436 46.5087 48.3998 46.0753 47.9665C45.642 47.5332 45.2982 47.0187 45.0637 46.4525C44.8292 45.8863 44.7085 45.2795 44.7085 44.6667Z" stroke="#04345B" stroke-width="2" stroke-linecap="round" stroke-linejoin="round"/>
<path d="M35.3752 54C35.3752 52.7623 35.8669 51.5753 36.7421 50.7001C37.6172 49.825 38.8042 49.3333 40.0419 49.3333H44.7086V54C44.7086 55.2377 44.2169 56.4246 43.3417 57.2998C42.4666 58.175 41.2796 58.6666 40.0419 58.6666C38.8042 58.6666 37.6172 58.175 36.7421 57.2998C35.8669 56.4246 35.3752 55.2377 35.3752 54Z" stroke="#04345B" stroke-width="2" stroke-linecap="round" stroke-linejoin="round"/>
<path d="M35.3752 44.6667C35.3752 43.429 35.8669 42.242 36.7421 41.3668C37.6172 40.4917 38.8042 40 40.0419 40H44.7086V49.3333H40.0419C38.8042 49.3333 37.6172 48.8417 36.7421 47.9665C35.8669 47.0913 35.3752 45.9043 35.3752 44.6667Z" stroke="#04345B" stroke-width="2" stroke-linecap="round" stroke-linejoin="round"/>
</svg>
