<svg width="89" height="88" viewBox="0 0 89 88" fill="none" xmlns="http://www.w3.org/2000/svg">
<rect x="0.833496" width="88" height="88" rx="10" fill="#242424"/>
<rect x="0.833496" width="88" height="88" rx="10" fill="#F2F9FF"/>
<path d="M40.1185 46.7297C40.1185 46.5887 40.1906 46.4618 40.3059 46.3207L46.261 38.9989C46.7079 38.4346 47.4577 38.8155 47.1982 39.5068L45.2372 44.656H48.9141C49.1881 44.656 49.4332 44.8675 49.4332 45.1216C49.4332 45.2626 49.3611 45.4178 49.2313 45.5447L43.2907 52.8523C42.8437 53.4167 42.0794 53.0358 42.3391 52.3586L44.3144 47.1953H40.6231C40.3492 47.1953 40.1185 46.9978 40.1185 46.7297ZM32.3611 56.9717H57.3059C60.334 56.9717 61.8335 55.5187 61.8335 52.6125V38.9707C61.8335 36.0646 60.334 34.6115 57.3059 34.6115H55.3161V32.7211C55.3161 31.6489 54.6817 31 53.5715 31H49.3178C48.222 31 47.5876 31.6489 47.5876 32.7211V34.6115H42.0938V32.7211C42.0938 31.6489 41.4594 31 40.3492 31H36.0956C34.9853 31 34.3653 31.6489 34.3653 32.7211V34.6115H32.3611C29.3475 34.6115 27.8335 36.0646 27.8335 38.9707V52.6125C27.8335 55.5187 29.3475 56.9717 32.3611 56.9717Z" fill="#04345B"/>
</svg>
