<svg width="19" height="20" viewBox="0 0 19 20" fill="none" xmlns="http://www.w3.org/2000/svg">
<path d="M11.2846 2.93726C10.3488 2.93726 9.45134 3.30901 8.78962 3.97072C8.12791 4.63244 7.75616 5.52992 7.75616 6.46573V8.43024H5.86794C5.77314 8.43024 5.69629 8.50709 5.69629 8.60189V11.1958C5.69629 11.2906 5.77314 11.3675 5.86794 11.3675H7.75616V16.6888C7.75616 16.7836 7.83301 16.8604 7.92781 16.8604H10.5217C10.6165 16.8604 10.6934 16.7836 10.6934 16.6888V11.3675H12.5983C12.6771 11.3675 12.7457 11.3138 12.7648 11.2374L13.4133 8.64352C13.4404 8.53518 13.3585 8.43024 13.2468 8.43024H10.6934V6.46573C10.6934 6.30892 10.7557 6.15853 10.8666 6.04765C10.9774 5.93677 11.1278 5.87447 11.2846 5.87447H13.2682C13.363 5.87447 13.4399 5.79762 13.4399 5.70282V3.10891C13.4399 3.01411 13.363 2.93726 13.2682 2.93726H11.2846Z" fill="white"/>
</svg>
