<svg width="89" height="89" viewBox="0 0 89 89" fill="none" xmlns="http://www.w3.org/2000/svg">
<rect x="0.166626" y="0.5" width="88" height="88" rx="10" fill="#242424"/>
<rect x="0.166626" y="0.5" width="88" height="88" rx="10" fill="#F2F9FF"/>
<path d="M50.836 37.8307C49.3875 36.3757 47.8075 35.0581 46.116 33.8947C47.952 32.9613 49.692 32.3987 51.2 32.224C53.1026 32.004 54.5093 32.4093 55.3826 33.2827C56.2573 34.1573 56.6626 35.5627 56.4413 37.4653C56.268 38.9747 55.7053 40.7133 54.7706 42.5507C53.6076 40.8592 52.2905 39.2791 50.836 37.8307Z" fill="#04345B"/>
<path fill-rule="evenodd" clip-rule="evenodd" d="M49.4213 39.2453C51.0232 40.8351 52.4447 42.5969 53.66 44.4987C52.4449 46.4009 51.0234 48.1631 49.4213 49.7533C47.8315 51.3552 46.0698 52.7767 44.168 53.992C42.2653 52.7769 40.5027 51.3554 38.912 49.7533C37.3106 48.1634 35.8896 46.4016 34.6747 44.5C35.8897 42.5968 37.3112 40.8337 38.9134 39.2427C40.5033 37.6417 42.2651 36.2211 44.1667 35.0067C46.0689 36.2218 47.8311 37.6434 49.4213 39.2453ZM44.1667 47.8333C45.0507 47.8333 45.8986 47.4821 46.5237 46.857C47.1488 46.2319 47.5 45.384 47.5 44.5C47.5 43.6159 47.1488 42.7681 46.5237 42.143C45.8986 41.5178 45.0507 41.1667 44.1667 41.1667C43.2826 41.1667 42.4348 41.5178 41.8097 42.143C41.1845 42.7681 40.8333 43.6159 40.8333 44.5C40.8333 45.384 41.1845 46.2319 41.8097 46.857C42.4348 47.4821 43.2826 47.8333 44.1667 47.8333Z" fill="#04345B"/>
<path d="M46.1159 55.104C47.8075 53.9401 49.3876 52.622 50.8359 51.1667C52.2904 49.7182 53.6076 48.1381 54.7706 46.4467C55.7053 48.284 56.2679 50.0227 56.4413 51.5307C56.6613 53.4333 56.2573 54.84 55.3826 55.7133C54.5093 56.588 53.1026 56.9933 51.1999 56.772C49.6919 56.5987 47.9519 56.0387 46.1159 55.104ZM37.4986 51.1667C38.9469 52.6221 40.527 53.9402 42.2186 55.104C40.3813 56.0373 38.6426 56.6 37.1333 56.7733C35.2306 56.9933 33.8266 56.5893 32.9519 55.7147C32.0773 54.8413 31.6719 53.4347 31.8919 51.532C32.0653 50.024 32.6279 48.2853 33.5626 46.448C34.7265 48.1396 36.0446 49.7196 37.4999 51.168M33.5626 42.5507C34.7265 40.8591 36.0446 39.2791 37.4999 37.8307C38.9484 36.3757 40.5284 35.0581 42.2199 33.8947C40.3826 32.9613 38.6439 32.3987 37.1346 32.224C35.2319 32.0053 33.8266 32.4093 32.9519 33.2827C32.0786 34.1573 31.6733 35.5627 31.8933 37.4667C32.0666 38.9747 32.6279 40.7133 33.5626 42.5507Z" fill="#04345B"/>
</svg>
