<svg width="89" height="88" viewBox="0 0 89 88" fill="none" xmlns="http://www.w3.org/2000/svg">
<rect x="0.833374" width="88" height="88" rx="10" fill="#F2F9FF"/>
<g clip-path="url(#clip0_80_199)">
<path d="M39.8334 32C39.8334 31.2044 40.1494 30.4413 40.7121 29.8787C41.2747 29.3161 42.0377 29 42.8334 29C43.629 29 44.3921 29.3161 44.9547 29.8787C45.5173 30.4413 45.8334 31.2044 45.8334 32C45.8334 32.7956 45.5173 33.5587 44.9547 34.1213C44.3921 34.6839 43.629 35 42.8334 35C42.0377 35 41.2747 34.6839 40.7121 34.1213C40.1494 33.5587 39.8334 32.7956 39.8334 32ZM27.4459 41.425C27.7646 40.6625 28.6396 40.3 29.4084 40.6187L30.6271 41.125L32.0584 38.7437C33.0771 37.0375 34.9146 36 36.8959 36C40.1084 36 42.9584 38.0562 43.9771 41.1062L46.1396 47.5875L51.0959 49.6562L53.2334 46.8062C53.6334 46.275 54.2709 45.975 54.9334 46.0063C55.5959 46.0375 56.2021 46.4062 56.5459 46.975L62.5459 56.975C62.9146 57.5938 62.9271 58.3625 62.5709 58.9875C62.2146 59.6125 61.5521 60 60.8334 60H44.8334C44.1396 60 43.4959 59.6437 43.1334 59.05C42.7709 58.4562 42.7334 57.725 43.0459 57.1063L44.0459 55.1063C44.3834 54.4313 45.0771 54 45.8334 54H47.8334L49.2396 52.125L28.2584 43.3875C27.4959 43.0687 27.1334 42.1938 27.4521 41.425H27.4459ZM32.6209 47.1625L39.6209 50.1625C40.3584 50.475 40.8334 51.2 40.8334 52V58C40.8334 59.1063 39.9396 60 38.8334 60C37.7271 60 36.8334 59.1063 36.8334 58V53.3188L33.0459 51.6938L30.7334 58.6313C30.3834 59.6812 29.2521 60.2437 28.2021 59.8937C27.1521 59.5437 26.5896 58.4125 26.9334 57.3687L29.9334 48.3687L30.6209 46.3062L32.6209 47.1625Z" fill="#04345B"/>
</g>
<defs>
<clipPath id="clip0_80_199">
<rect width="36" height="32" fill="white" transform="translate(26.8334 28)"/>
</clipPath>
</defs>
</svg>
