<svg width="89" height="88" viewBox="0 0 89 88" fill="none" xmlns="http://www.w3.org/2000/svg">
<rect x="0.5" width="88" height="88" rx="10" fill="#04345B"/>
<rect x="0.5" width="88" height="88" rx="10" fill="#F2F9FF"/>
<path d="M41.8334 30.6667H47.1667C47.8739 30.6667 48.5522 30.9476 49.0523 31.4477C49.5524 31.9478 49.8334 32.6261 49.8334 33.3333V36H55.1667C55.8739 36 56.5522 36.281 57.0523 36.781C57.5524 37.2811 57.8334 37.9594 57.8334 38.6667V53.3333C57.8334 54.0406 57.5524 54.7189 57.0523 55.219C56.5522 55.719 55.8739 56 55.1667 56H33.8334C33.1261 56 32.4478 55.719 31.9477 55.219C31.4476 54.7189 31.1667 54.0406 31.1667 53.3333V38.6667C31.1667 37.1867 32.3534 36 33.8334 36H39.1667V33.3333C39.1667 31.8533 40.3534 30.6667 41.8334 30.6667ZM47.1667 36V33.3333H41.8334V36H47.1667Z" fill="#04345B"/>
</svg>
