<svg width="19" height="20" viewBox="0 0 19 20" fill="none" xmlns="http://www.w3.org/2000/svg">
<path d="M9.80402 7.41926C8.43465 7.41926 7.32455 8.52935 7.32455 9.89873C7.32455 11.2681 8.43465 12.3782 9.80402 12.3782C11.1734 12.3782 12.2835 11.2681 12.2835 9.89873C12.2835 8.52935 11.1734 7.41926 9.80402 7.41926Z" fill="white"/>
<path fill-rule="evenodd" clip-rule="evenodd" d="M5.81363 3.09465C8.44425 2.80064 11.1638 2.80064 13.7944 3.09465C15.2427 3.25652 16.4109 4.39767 16.5809 5.85106C16.8954 8.54034 16.8954 11.2571 16.5809 13.9464C16.4109 15.3998 15.2427 16.5409 13.7944 16.7028C11.1638 16.9968 8.44425 16.9968 5.81363 16.7028C4.36532 16.5409 3.19715 15.3998 3.02716 13.9464C2.71263 11.2571 2.71263 8.54034 3.02716 5.85106C3.19715 4.39767 4.36532 3.25652 5.81363 3.09465ZM13.6186 5.32124C13.1972 5.32124 12.8557 5.66281 12.8557 6.08416C12.8557 6.5055 13.1972 6.84707 13.6186 6.84707C14.0399 6.84707 14.3815 6.5055 14.3815 6.08416C14.3815 5.66281 14.0399 5.32124 13.6186 5.32124ZM6.18018 9.89873C6.18018 7.89733 7.80263 6.27488 9.80402 6.27488C11.8054 6.27488 13.4279 7.89733 13.4279 9.89873C13.4279 11.9001 11.8054 13.5226 9.80402 13.5226C7.80263 13.5226 6.18018 11.9001 6.18018 9.89873Z" fill="white"/>
</svg>
