<svg width="19" height="20" viewBox="0 0 19 20" fill="none" xmlns="http://www.w3.org/2000/svg">
<path d="M3.87803 2.17419C2.98267 2.17419 2.25684 2.90003 2.25684 3.79539C2.25684 4.69075 2.98267 5.41658 3.87803 5.41658C4.77339 5.41658 5.49922 4.69075 5.49922 3.79539C5.49922 2.90003 4.77339 2.17419 3.87803 2.17419Z" fill="white"/>
<path d="M2.3522 6.75168C2.29953 6.75168 2.25684 6.79437 2.25684 6.84704V16.7649C2.25684 16.8176 2.29953 16.8603 2.3522 16.8603H5.40386C5.45652 16.8603 5.49922 16.8176 5.49922 16.7649V6.84704C5.49922 6.79437 5.45652 6.75168 5.40386 6.75168H2.3522Z" fill="white"/>
<path d="M7.31114 6.75168C7.25847 6.75168 7.21578 6.79437 7.21578 6.84704V16.7649C7.21578 16.8176 7.25847 16.8603 7.31114 16.8603H10.3628C10.4155 16.8603 10.4582 16.8176 10.4582 16.7649V11.4245C10.4582 11.0451 10.6089 10.6813 10.8771 10.413C11.1454 10.1448 11.5092 9.99406 11.8886 9.99406C12.268 9.99406 12.6319 10.1448 12.9001 10.413C13.1684 10.6813 13.3191 11.0451 13.3191 11.4245V16.7649C13.3191 16.8176 13.3618 16.8603 13.4145 16.8603H16.4661C16.5188 16.8603 16.5615 16.8176 16.5615 16.7649V10.1888C16.5615 8.3374 14.9513 6.889 13.1092 7.05646C12.5411 7.10811 11.9794 7.24933 11.4549 7.47412L10.4582 7.90128V6.84704C10.4582 6.79437 10.4155 6.75168 10.3628 6.75168H7.31114Z" fill="white"/>
</svg>
