<svg width="89" height="88" viewBox="0 0 89 88" fill="none" xmlns="http://www.w3.org/2000/svg">
<rect x="0.166626" width="88" height="88" rx="10" fill="#F2F9FF"/>
<path d="M44.1667 40L39.5 35.3333L44.1667 30.6667L48.8333 35.3333L44.1667 40ZM29.5 54.6667V49.3333C29.5 48.5778 29.7613 47.9444 30.284 47.4333C30.8067 46.9222 31.4342 46.6667 32.1667 46.6667H36.5333C36.9778 46.6667 37.4 46.7778 37.8 47C38.2 47.2222 38.5222 47.5222 38.7667 47.9C39.4111 48.7667 40.2058 49.4444 41.1507 49.9333C42.0956 50.4222 43.1009 50.6667 44.1667 50.6667C45.2556 50.6667 46.2724 50.4222 47.2173 49.9333C48.1622 49.4444 48.9453 48.7667 49.5667 47.9C49.8556 47.5222 50.1947 47.2222 50.584 47C50.9733 46.7778 51.3787 46.6667 51.8 46.6667H56.1667C56.9222 46.6667 57.5556 46.9222 58.0667 47.4333C58.5778 47.9444 58.8333 48.5778 58.8333 49.3333V54.6667H49.5V51.6333C48.7222 52.1889 47.8831 52.6111 46.9827 52.9C46.0822 53.1889 45.1436 53.3333 44.1667 53.3333C43.2111 53.3333 42.2778 53.1836 41.3667 52.884C40.4556 52.5844 39.6111 52.1564 38.8333 51.6V54.6667H29.5ZM33.5 45.3333C32.3889 45.3333 31.4444 44.9444 30.6667 44.1667C29.8889 43.3889 29.5 42.4444 29.5 41.3333C29.5 40.2 29.8889 39.2502 30.6667 38.484C31.4444 37.7178 32.3889 37.3342 33.5 37.3333C34.6333 37.3333 35.5836 37.7169 36.3507 38.484C37.1178 39.2511 37.5009 40.2009 37.5 41.3333C37.5 42.4444 37.1169 43.3889 36.3507 44.1667C35.5844 44.9444 34.6342 45.3333 33.5 45.3333ZM54.8333 45.3333C53.7222 45.3333 52.7778 44.9444 52 44.1667C51.2222 43.3889 50.8333 42.4444 50.8333 41.3333C50.8333 40.2 51.2222 39.2502 52 38.484C52.7778 37.7178 53.7222 37.3342 54.8333 37.3333C55.9667 37.3333 56.9169 37.7169 57.684 38.484C58.4511 39.2511 58.8342 40.2009 58.8333 41.3333C58.8333 42.4444 58.4502 43.3889 57.684 44.1667C56.9178 44.9444 55.9676 45.3333 54.8333 45.3333Z" fill="#04345B"/>
</svg>
