<svg width="89" height="89" viewBox="0 0 89 89" fill="none" xmlns="http://www.w3.org/2000/svg">
<rect x="0.5" y="0.5" width="88" height="88" rx="10" fill="#242424"/>
<rect x="0.5" y="0.5" width="88" height="88" rx="10" fill="#F2F9FF"/>
<path fill-rule="evenodd" clip-rule="evenodd" d="M58.831 27C58.2053 27 57.5937 27.1852 57.0731 27.5322L48.6081 33.1755C46.281 34.727 44.181 36.5782 42.3587 38.6743C45.8833 40.275 48.7249 43.1166 50.3256 46.6413C52.4217 44.819 54.2729 42.719 55.8244 40.3918L61.4677 31.9268C61.8147 31.4063 61.9999 30.7946 61.9999 30.169C61.9999 28.4188 60.5811 27 58.831 27ZM44.9991 50.3748C46.2967 49.654 47.5372 48.8438 48.7127 47.9519C47.2926 44.481 44.519 41.7073 41.048 40.2872C40.1561 41.4627 39.3459 42.7033 38.6251 44.0008L38.1609 44.8364C41.055 45.6642 43.3358 47.9449 44.1636 50.839L44.9991 50.3748ZM35.7499 47C32.2981 47 29.4999 49.7982 29.4999 53.25C29.4999 54.6307 28.3806 55.75 26.9999 55.75C26.9433 55.75 26.887 55.7481 26.831 55.7444C26.3707 55.714 25.9311 55.9395 25.6874 56.3311C25.4436 56.7226 25.4353 57.2167 25.6657 57.6162C27.1754 60.2336 30.0056 62 33.2499 62C38.0824 62 41.9999 58.0825 41.9999 53.25C41.9999 49.7982 39.2017 47 35.7499 47Z" fill="#04345B"/>
</svg>
