<svg width="89" height="88" viewBox="0 0 89 88" fill="none" xmlns="http://www.w3.org/2000/svg">
<rect x="0.166748" width="88" height="88" rx="10" fill="#242424"/>
<rect x="0.166748" width="88" height="88" rx="10" fill="#F2F9FF"/>
<path d="M42.9167 32.8949C42.9167 32.303 42.6067 31.7679 42.2481 31.297C41.8799 30.8135 41.6667 30.24 41.6667 29.625C41.6667 27.8991 43.3457 26.5 45.4167 26.5C47.4878 26.5 49.1667 27.8991 49.1667 29.625C49.1667 30.24 48.9536 30.8135 48.5854 31.297C48.2268 31.7679 47.9167 32.303 47.9167 32.8949C47.9167 33.4488 48.3796 33.891 48.9325 33.858C52.1169 33.668 55.2498 33.2888 58.3204 32.7316C58.6583 32.6703 59.0066 32.7507 59.2834 32.954C59.5602 33.1573 59.7412 33.4655 59.7839 33.8063C60.1572 36.7887 60.3689 39.821 60.4099 42.8941C60.418 43.5047 59.9223 43.9998 59.3116 44C58.7197 44 58.1847 43.6899 57.7137 43.3313C57.2302 42.9632 56.6567 42.75 56.0417 42.75C54.3159 42.75 52.9167 44.4289 52.9167 46.5C52.9167 48.5711 54.3159 50.25 56.0417 50.25C56.6567 50.25 57.2302 50.0368 57.7137 49.6687C58.1847 49.3101 58.7197 49 59.3116 49C59.829 49 60.2398 49.4361 60.2025 49.9521C60.0047 52.6831 59.6719 55.3769 59.2107 58.0269C59.1202 58.5466 58.7132 58.9536 58.1935 59.044C55.1616 59.5717 52.0724 59.9312 48.9359 60.1128C48.3809 60.1449 47.9167 59.7008 47.9167 59.1449C47.9167 58.553 48.2268 58.0179 48.5854 57.547C48.9536 57.0635 49.1667 56.49 49.1667 55.875C49.1667 54.1491 47.4878 52.75 45.4167 52.75C43.3457 52.75 41.6667 54.1491 41.6667 55.875C41.6667 56.49 41.8799 57.0635 42.2481 57.547C42.6067 58.0179 42.9167 58.553 42.9167 59.1449C42.9167 59.7475 42.4233 60.2342 41.821 60.2171C39.1718 60.142 36.5541 59.94 33.9736 59.6169C33.6329 59.5743 33.3246 59.3933 33.1214 59.1164C32.9181 58.8396 32.8377 58.4913 32.899 58.1534C33.3871 55.4635 33.7387 52.7256 33.9461 49.9472C33.9844 49.4342 33.5761 49 33.0616 49C32.4697 49 31.9347 49.3101 31.4637 49.6687C30.9803 50.0368 30.4067 50.25 29.7917 50.25C28.0659 50.25 26.6667 48.5711 26.6667 46.5C26.6667 44.4289 28.0659 42.75 29.7917 42.75C30.4067 42.75 30.9803 42.9632 31.4637 43.3313C31.9347 43.6899 32.4697 44 33.0616 44C33.6722 44 34.168 43.505 34.1596 42.8944C34.1223 40.1807 33.9478 37.5004 33.6427 34.8605C33.5989 34.4813 33.7307 34.103 34.0006 33.8331C34.2705 33.5632 34.6488 33.4314 35.028 33.4753C37.2651 33.7338 39.5311 33.8985 41.8219 33.9655C42.4237 33.9831 42.9167 33.497 42.9167 32.8949Z" fill="#04345B"/>
</svg>
