<svg width="88" height="88" viewBox="0 0 88 88" fill="none" xmlns="http://www.w3.org/2000/svg">
<rect width="88" height="88" rx="10" fill="#F2F9FF"/>
<path d="M46.5 32.5C46.5 31.837 46.2366 31.2011 45.7678 30.7322C45.2989 30.2634 44.663 30 44 30C43.337 30 42.7011 30.2634 42.2322 30.7322C41.7634 31.2011 41.5 31.837 41.5 32.5C41.5 33.163 41.7634 33.7989 42.2322 34.2678C42.7011 34.7366 43.337 35 44 35C44.663 35 45.2989 34.7366 45.7678 34.2678C46.2366 33.7989 46.5 33.163 46.5 32.5ZM33 41C33.663 41 34.2989 40.7366 34.7678 40.2678C35.2366 39.7989 35.5 39.163 35.5 38.5C35.5 37.837 35.2366 37.2011 34.7678 36.7322C34.2989 36.2634 33.663 36 33 36C32.337 36 31.7011 36.2634 31.2322 36.7322C30.7634 37.2011 30.5 37.837 30.5 38.5C30.5 39.163 30.7634 39.7989 31.2322 40.2678C31.7011 40.7366 32.337 41 33 41ZM26 54C24.8937 54 24 54.8937 24 56C24 57.1063 24.8937 58 26 58H62C63.1063 58 64 57.1063 64 56C64 54.8937 63.1063 54 62 54H26ZM55 41C55.663 41 56.2989 40.7366 56.7678 40.2678C57.2366 39.7989 57.5 39.163 57.5 38.5C57.5 37.837 57.2366 37.2011 56.7678 36.7322C56.2989 36.2634 55.663 36 55 36C54.337 36 53.7011 36.2634 53.2322 36.7322C52.7634 37.2011 52.5 37.837 52.5 38.5C52.5 39.163 52.7634 39.7989 53.2322 40.2678C53.7011 40.7366 54.337 41 55 41ZM36.5 47.5938L38.1812 50.7125C38.575 51.4438 39.4812 51.7125 40.2125 51.325C40.9438 50.9375 41.2125 50.025 40.825 49.2938L38.5562 45.075C38.6625 44.9688 38.7562 44.85 38.825 44.7125L40.5 41.5938V45C40.5 46.1063 41.3937 47 42.5 47H45.5C46.6063 47 47.5 46.1063 47.5 45V41.5938L49.1812 44.7125C49.2563 44.85 49.3438 44.9688 49.45 45.075L47.1812 49.2938C46.7875 50.025 47.0625 50.9313 47.7938 51.325C48.525 51.7188 49.4313 51.4438 49.825 50.7125L51.5 47.5938V50C51.5 51.1063 52.3937 52 53.5 52H56.5C57.6063 52 58.5 51.1063 58.5 50V47.5938L60.1813 50.7125C60.575 51.4438 61.4813 51.7125 62.2125 51.325C62.9438 50.9375 63.2125 50.025 62.825 49.2938L60.4562 44.9C59.5 43.1187 57.6375 42.0063 55.6125 42.0063H54.3875C53.3688 42.0063 52.3937 42.2875 51.55 42.7937L49.45 38.9C48.4938 37.1187 46.6313 36.0063 44.6063 36.0063H43.3875C41.3625 36.0063 39.5062 37.1187 38.5437 38.9L36.4438 42.7937C35.6 42.2875 34.625 42.0063 33.6062 42.0063H32.3875C30.3625 42.0063 28.5062 43.1187 27.5438 44.9L25.1812 49.2875C24.7875 50.0188 25.0625 50.925 25.7938 51.3188C26.525 51.7125 27.4313 51.4375 27.825 50.7062L29.5 47.5938V50C29.5 51.1063 30.3938 52 31.5 52H34.5C35.6062 52 36.5 51.1063 36.5 50V47.5938Z" fill="#04345B"/>
</svg>
