<svg width="89" height="88" viewBox="0 0 89 88" fill="none" xmlns="http://www.w3.org/2000/svg">
<rect x="0.5" width="88" height="88" rx="10" fill="#F2F9FF"/>
<g clip-path="url(#clip0_80_213)">
<path fill-rule="evenodd" clip-rule="evenodd" d="M52.1023 28.64C52.2218 28.4482 52.3954 28.2961 52.6012 28.2029C52.8071 28.1098 53.0359 28.0797 53.2589 28.1166L59.1355 29.0971C59.4342 29.147 59.701 29.3134 59.8772 29.5598C60.0533 29.8063 60.1244 30.1126 60.0749 30.4114L59.0966 36.2903C59.0593 36.5131 58.9567 36.7199 58.8019 36.8845C58.6471 37.0491 58.4469 37.1641 58.2268 37.215C58.0066 37.2658 57.7763 37.2503 57.565 37.1704C57.3537 37.0904 57.1708 36.9496 57.0395 36.7657L55.4532 34.5486L47.284 39.7691C46.9357 39.9921 46.5184 40.0815 46.1093 40.021C45.7002 39.9605 45.3267 39.7542 45.0577 39.44L40.5023 34.1143L31.9835 38.4914C31.5791 38.6994 31.1087 38.7381 30.6758 38.5993C30.2428 38.4604 29.8828 38.1552 29.6749 37.7509C29.467 37.3465 29.4282 36.8761 29.567 36.4432C29.7059 36.0102 30.0111 35.6502 30.4155 35.4423L40.1412 30.4434C40.4845 30.267 40.8774 30.2117 41.2561 30.2863C41.6349 30.361 41.9773 30.5613 42.228 30.8549L46.6943 36.0777L53.46 31.7531L52.1412 29.9086C52.01 29.7246 51.9364 29.506 51.9295 29.2802C51.9225 29.0544 51.9827 28.8316 52.1023 28.64ZM37.14 39.8629L30.5069 43.6571C30.2448 43.8068 30.027 44.023 29.8752 44.2839C29.7235 44.5448 29.6434 44.8411 29.6429 45.1429V58.2857C29.6429 59.232 30.4109 60 31.3572 60H37.14V39.8629ZM39.9972 60H48.3812V44.4297L44.612 46.3131L40.8452 39.7211C40.6549 39.3859 40.3569 39.1249 39.9995 38.9806L39.9972 60ZM57.6429 60H51.2383V43.0011L56.8772 40.1806C57.1385 40.0501 57.4289 39.9886 57.7207 40.0018C58.0125 40.0151 58.2961 40.1027 58.5446 40.2563C58.793 40.41 58.9981 40.6246 59.1403 40.8797C59.2825 41.1349 59.3572 41.4222 59.3572 41.7143V58.2857C59.3572 58.7404 59.1766 59.1764 58.8551 59.4979C58.5336 59.8194 58.0975 60 57.6429 60Z" fill="#04345B"/>
</g>
<defs>
<clipPath id="clip0_80_213">
<rect width="32" height="32" fill="white" transform="translate(28.5 28)"/>
</clipPath>
</defs>
</svg>
