<svg width="20" height="20" viewBox="0 0 20 20" fill="none" xmlns="http://www.w3.org/2000/svg">
<path d="M17.4852 5.49472C17.5294 5.4331 17.4641 5.35354 17.3934 5.38095C16.8908 5.57574 16.3656 5.70717 15.8299 5.77194C16.4264 5.41556 16.8867 4.87307 17.142 4.2308C17.168 4.16537 17.0965 4.10694 17.0349 4.14098C16.4805 4.44717 15.8825 4.66765 15.2614 4.79462C15.2354 4.79994 15.2086 4.79109 15.1904 4.77183C14.7242 4.27999 14.1107 3.95253 13.4418 3.83936C12.7589 3.72382 12.0569 3.83822 11.446 4.16462C10.8351 4.49102 10.3498 5.01095 10.0662 5.64288C9.79662 6.24372 9.72386 6.91349 9.85685 7.55672C9.86716 7.60663 9.8281 7.65375 9.77723 7.65059C8.56874 7.57553 7.38797 7.25409 6.30768 6.70564C5.23013 6.15858 4.27593 5.39752 3.50319 4.46941C3.4689 4.42822 3.4039 4.43355 3.37891 4.48097C3.13847 4.93724 3.01257 5.4458 3.01292 5.96267C3.01194 6.47716 3.1382 6.98391 3.38045 7.43781C3.62271 7.8917 3.97344 8.27865 4.40142 8.5642C3.94754 8.55185 3.50251 8.43965 3.09779 8.2362C3.04563 8.20999 2.98307 8.24732 2.98578 8.30563C3.01734 8.98404 3.26639 9.66512 3.69749 10.1877C4.15624 10.7437 4.79299 11.1243 5.50001 11.2649C5.22785 11.3477 4.94528 11.3914 4.66081 11.3946C4.50598 11.3928 4.35146 11.3814 4.19813 11.3604C4.14128 11.3526 4.09486 11.4066 4.11476 11.4605C4.32564 12.0307 4.69819 12.5283 5.18804 12.8916C5.71174 13.2799 6.34347 13.4953 6.99533 13.5079C5.8946 14.374 4.5356 14.8467 3.13498 14.8506C2.99106 14.8511 2.84721 14.8464 2.70369 14.8366C2.62282 14.8311 2.58562 14.9389 2.65533 14.9803C4.02001 15.7901 5.57981 16.2182 7.1708 16.2162C8.34545 16.2284 9.51076 16.0064 10.5987 15.5632C11.6866 15.12 12.6752 14.4645 13.507 13.6349C14.3387 12.8053 14.9967 11.8183 15.4427 10.7316C15.8887 9.64481 16.1137 8.48007 16.1045 7.30539V6.93933C16.1045 6.91524 16.1159 6.89259 16.1351 6.87807C16.6526 6.48735 17.1077 6.02088 17.4852 5.49472Z" fill="white"/>
</svg>
