<svg width="88" height="88" viewBox="0 0 88 88" fill="none" xmlns="http://www.w3.org/2000/svg">
<rect width="88" height="88" rx="10" fill="white"/>
<rect width="88" height="88" rx="10" fill="#04345B"/>
<g clip-path="url(#clip0_138_536)">
<path d="M38 42.14H37.13C35.9427 42.0971 34.7593 42.2986 33.6532 42.7321C32.5471 43.1656 31.5419 43.8218 30.7 44.66L30.46 44.94V53.22H34.54V48.52L35.09 47.9L35.34 47.61C36.6419 46.2725 38.2627 45.2883 40.05 44.75C39.1552 44.0691 38.4494 43.1706 38 42.14Z" fill="white"/>
<path d="M57.3401 44.63C56.4981 43.7919 55.4929 43.1357 54.3868 42.7022C53.2807 42.2687 52.0973 42.0671 50.9101 42.11C50.5459 42.1111 50.1821 42.1311 49.8201 42.17C49.3622 43.1369 48.6757 43.9778 47.8201 44.62C49.728 45.1479 51.4564 46.1849 52.8201 47.62L53.0701 47.9L53.6101 48.52V53.23H57.5501V44.91L57.3401 44.63Z" fill="white"/>
<path d="M37.1001 40.19H37.4101C37.2661 38.9532 37.4831 37.7012 38.0349 36.5851C38.5868 35.4689 39.4499 34.5364 40.5201 33.9C40.1322 33.3073 39.597 32.8256 38.9669 32.5019C38.3369 32.1783 37.6336 32.0238 36.9259 32.0536C36.2182 32.0834 35.5303 32.2965 34.9297 32.6721C34.3291 33.0476 33.8364 33.5726 33.4997 34.1958C33.163 34.819 32.9939 35.519 33.009 36.2271C33.0241 36.9353 33.2228 37.6274 33.5858 38.2357C33.9487 38.844 34.4634 39.3476 35.0795 39.6971C35.6955 40.0467 36.3918 40.2303 37.1001 40.23V40.19Z" fill="white"/>
<path d="M50.43 39.44C50.4421 39.6698 50.4421 39.9002 50.43 40.13C50.6219 40.1604 50.8157 40.1771 51.01 40.18H51.2C51.9052 40.1424 52.5886 39.9228 53.1838 39.5427C53.779 39.1625 54.2656 38.6347 54.5962 38.0107C54.9269 37.3867 55.0903 36.6877 55.0706 35.9817C55.0509 35.2758 54.8488 34.587 54.4838 33.9824C54.1189 33.3777 53.6036 32.8779 52.9882 32.5315C52.3728 32.1851 51.6781 32.004 50.9719 32.0058C50.2657 32.0076 49.572 32.1922 48.9583 32.5417C48.3446 32.8911 47.8319 33.3935 47.47 34C48.3751 34.5909 49.1193 35.3973 49.6359 36.3468C50.1525 37.2962 50.4254 38.3591 50.43 39.44Z" fill="white"/>
<path d="M43.8699 43.92C46.3386 43.92 48.3399 41.9187 48.3399 39.45C48.3399 36.9813 46.3386 34.98 43.8699 34.98C41.4012 34.98 39.3999 36.9813 39.3999 39.45C39.3999 41.9187 41.4012 43.92 43.8699 43.92Z" fill="white"/>
<path d="M44.11 46.3C42.804 46.2473 41.5009 46.4593 40.279 46.9233C39.0572 47.3873 37.9418 48.0937 37 49L36.75 49.28V55.61C36.7539 55.8162 36.7984 56.0196 36.8809 56.2086C36.9634 56.3975 37.0824 56.5684 37.231 56.7114C37.3796 56.8544 37.5549 56.9668 37.7469 57.042C37.9389 57.1173 38.1438 57.154 38.35 57.15H49.84C50.0462 57.154 50.2511 57.1173 50.4431 57.042C50.6351 56.9668 50.8104 56.8544 50.959 56.7114C51.1076 56.5684 51.2266 56.3975 51.3091 56.2086C51.3916 56.0196 51.4361 55.8162 51.44 55.61V49.3L51.2 49C50.2643 48.0909 49.1528 47.3825 47.9337 46.9182C46.7145 46.4539 45.4134 46.2436 44.11 46.3Z" fill="white"/>
</g>
<defs>
<clipPath id="clip0_138_536">
<rect width="36" height="36" fill="white" transform="translate(26 26)"/>
</clipPath>
</defs>
</svg>
